<svg xmlns="http://www.w3.org/2000/svg" viewBox="0 0 512 512">
  <defs>
    <linearGradient id="skin" x1="0" y1="0" x2="1" y2="1"><stop offset="0" stop-color="#E8B18B"/><stop offset="0.6" stop-color="#C98666"/><stop offset="1" stop-color="#9D604B"/></linearGradient>
    <linearGradient id="shirt" x1="0" y1="0" x2="1" y2="1"><stop offset="0" stop-color="#3346A6"/><stop offset="1" stop-color="#1B235D"/></linearGradient>
    <linearGradient id="hair" x1="0" y1="0" x2="1" y2="1"><stop offset="0" stop-color="#4B332B"/><stop offset="1" stop-color="#181318"/></linearGradient>
  </defs>
  <path d="M68 512c13-89 74-136 149-153h79c78 18 134 66 147 153z" fill="url(#shirt)"/>
  <path d="M160 163c-21 47-24 114-9 187 9 41 24 69 45 84l31-65 81-2 31 65c21-20 34-49 40-86 13-76 8-139-18-187-28-52-63-76-105-76-41 0-72 24-96 80z" fill="url(#hair)"/>
  <path d="M205 329h102v77c-22 22-79 23-102 0z" fill="#B9775B"/>
  <ellipse cx="161" cy="240" rx="26" ry="39" fill="#B77A5E"/>
  <ellipse cx="351" cy="240" rx="26" ry="39" fill="#B77A5E"/>
  <path d="M256 92c-66 0-101 49-99 126 3 84 41 144 99 144s96-60 99-144C357 141 322 92 256 92z" fill="url(#skin)"/>
  <path d="M159 178c6-72 42-111 96-117 63-7 104 29 115 90-36-22-72-27-109-14-35 12-67 27-102 41z" fill="url(#hair)"/>
  <path d="M190 216c19-10 39-10 57-1" fill="none" stroke="#543A31" stroke-width="9" stroke-linecap="round"/>
  <path d="M270 215c18-8 38-7 55 3" fill="none" stroke="#543A31" stroke-width="9" stroke-linecap="round"/>
  <ellipse cx="220" cy="235" rx="13" ry="10" fill="#FFFFFF"/><ellipse cx="297" cy="235" rx="13" ry="10" fill="#FFFFFF"/>
  <circle cx="221" cy="236" r="6" fill="#4F694D"/><circle cx="296" cy="236" r="6" fill="#4F694D"/>
  <circle cx="223" cy="234" r="2" fill="#FFFFFF"/><circle cx="298" cy="234" r="2" fill="#FFFFFF"/>
  <path d="M256 238c-4 25-7 42 7 50 8 4 17 4 24-1" fill="none" stroke="#94604E" stroke-width="6" stroke-linecap="round"/>
  <path d="M218 306c24 17 55 18 79 0" fill="none" stroke="#713B43" stroke-width="8" stroke-linecap="round"/>
  <path d="M170 369c35 31 64 45 86 45s51-14 86-45" fill="none" stroke="#6A7DFF" stroke-width="13"/>
</svg>