<svg xmlns="http://www.w3.org/2000/svg" viewBox="0 0 512 512">
  <defs>
    <linearGradient id="skin" x1="0" y1="0" x2="1" y2="1"><stop offset="0" stop-color="#7F4C38"/><stop offset="0.58" stop-color="#653728"/><stop offset="1" stop-color="#43241C"/></linearGradient>
    <linearGradient id="shirt" x1="0" y1="0" x2="1" y2="1"><stop offset="0" stop-color="#22BFD4"/><stop offset="1" stop-color="#0A687C"/></linearGradient>
  </defs>
  <path d="M68 512c14-89 74-136 149-153h79c79 18 135 66 147 153z" fill="url(#shirt)"/>
  <path d="M205 329h102v77c-22 22-79 23-102 0z" fill="#563025"/>
  <ellipse cx="159" cy="240" rx="27" ry="40" fill="#5C3528"/>
  <ellipse cx="353" cy="240" rx="27" ry="40" fill="#5C3528"/>
  <path d="M256 94c-67 0-103 48-100 125 3 85 42 143 100 143s97-58 100-143C359 142 323 94 256 94z" fill="url(#skin)"/>
  <path d="M164 166c8-56 42-87 92-87 53 0 86 28 94 82-59-21-122-19-186 5z" fill="#171419"/>
  <path d="M176 150c23-36 51-51 85-51 32 0 58 13 80 40-54-9-108-5-165 11z" fill="#2A2429" fill-opacity="0.65"/>
  <path d="M190 217c18-10 38-10 56-1" fill="none" stroke="#30211D" stroke-width="9" stroke-linecap="round"/>
  <path d="M271 216c18-9 37-8 54 2" fill="none" stroke="#30211D" stroke-width="9" stroke-linecap="round"/>
  <ellipse cx="220" cy="235" rx="13" ry="10" fill="#FFFFFF"/><ellipse cx="297" cy="235" rx="13" ry="10" fill="#FFFFFF"/>
  <circle cx="221" cy="236" r="6" fill="#2A211E"/><circle cx="296" cy="236" r="6" fill="#2A211E"/>
  <circle cx="223" cy="234" r="2" fill="#FFFFFF"/><circle cx="298" cy="234" r="2" fill="#FFFFFF"/>
  <path d="M256 238c-4 25-7 42 7 50 8 4 17 4 24-1" fill="none" stroke="#41271F" stroke-width="6" stroke-linecap="round"/>
  <path d="M216 306c24 17 56 18 81 0" fill="none" stroke="#5A2F34" stroke-width="8" stroke-linecap="round"/>
  <path d="M207 287c9 18 24 29 49 30 25 0 43-10 53-28-13 40-80 54-102-2z" fill="#1B171A" fill-opacity="0.45"/>
  <path d="M171 369c34 31 63 45 85 45s51-14 85-45" fill="none" stroke="#5AE8F8" stroke-width="13"/>
</svg>