<svg xmlns="http://www.w3.org/2000/svg" viewBox="0 0 512 512">
  <defs>
    <linearGradient id="skin" x1="0" y1="0" x2="1" y2="1"><stop offset="0" stop-color="#8A573F"/><stop offset="0.6" stop-color="#663A2B"/><stop offset="1" stop-color="#45251D"/></linearGradient>
    <linearGradient id="shirt" x1="0" y1="0" x2="1" y2="1"><stop offset="0" stop-color="#7F4AD0"/><stop offset="1" stop-color="#3E267D"/></linearGradient>
  </defs>
  <path d="M68 512c14-89 74-136 149-153h79c79 18 135 66 147 153z" fill="url(#shirt)"/>
  <path d="M205 329h102v77c-22 22-79 23-102 0z" fill="#573126"/>
  <ellipse cx="159" cy="240" rx="27" ry="40" fill="#5D3629"/>
  <ellipse cx="353" cy="240" rx="27" ry="40" fill="#5D3629"/>
  <path d="M256 94c-67 0-103 48-100 126 3 84 42 142 100 142s97-58 100-142C359 142 323 94 256 94z" fill="url(#skin)"/>
  <path d="M167 162c10-52 42-80 89-80 48 0 79 26 89 75-56-16-116-14-178 5z" fill="#171317" fill-opacity="0.48"/>
  <path d="M190 217c18-10 38-10 56-1" fill="none" stroke="#2C201D" stroke-width="9" stroke-linecap="round"/>
  <path d="M271 216c18-9 37-8 54 2" fill="none" stroke="#2C201D" stroke-width="9" stroke-linecap="round"/>
  <ellipse cx="220" cy="235" rx="13" ry="10" fill="#FFFFFF"/><ellipse cx="297" cy="235" rx="13" ry="10" fill="#FFFFFF"/>
  <circle cx="221" cy="236" r="6" fill="#2E2623"/><circle cx="296" cy="236" r="6" fill="#2E2623"/>
  <circle cx="223" cy="234" r="2" fill="#FFFFFF"/><circle cx="298" cy="234" r="2" fill="#FFFFFF"/>
  <path d="M256 238c-4 25-7 42 7 50 8 4 17 4 24-1" fill="none" stroke="#422820" stroke-width="6" stroke-linecap="round"/>
  <path d="M208 291c11 31 28 48 48 50 22 2 42-17 52-50-14 13-31 20-52 20-19 0-35-7-48-20z" fill="#1D1719" fill-opacity="0.7"/>
  <path d="M220 308c24 13 48 13 72 0" fill="none" stroke="#58323A" stroke-width="7" stroke-linecap="round"/>
  <path d="M171 369c34 31 63 45 85 45s51-14 85-45" fill="none" stroke="#B985FF" stroke-width="13"/>
</svg>