<svg xmlns="http://www.w3.org/2000/svg" viewBox="0 0 640 520">
  <defs>
    <linearGradient id="pack" x1="0" y1="0" x2="1" y2="1"><stop offset="0" stop-color="#C48A23"/><stop offset="0.5" stop-color="#70401B"/><stop offset="1" stop-color="#2C1C32"/></linearGradient>
    <linearGradient id="gold" x1="0" y1="0" x2="1" y2="1"><stop offset="0" stop-color="#FFF9C8"/><stop offset="0.4" stop-color="#FFDC55"/><stop offset="0.75" stop-color="#E49A21"/><stop offset="1" stop-color="#FFF1A0"/></linearGradient>
    <radialGradient id="glow" cx="0.5" cy="0.4" r="0.65"><stop offset="0" stop-color="#FFD95C" stop-opacity="0.45"/><stop offset="1" stop-color="#FFD95C" stop-opacity="0"/></radialGradient>
  </defs>
  <path d="M115 103h410l-34 336H149z" fill="url(#pack)" stroke="#F6C553" stroke-width="14"/>
  <path d="M149 103 218 40h204l103 63z" fill="#402446" stroke="#F6C553" stroke-width="11"/>
  <ellipse cx="320" cy="287" rx="218" ry="172" fill="url(#glow)"/>
  <g>
    <circle cx="219" cy="295" r="74" fill="url(#gold)" stroke="#FFF7B7" stroke-width="8"/>
    <circle cx="312" cy="217" r="91" fill="url(#gold)" stroke="#FFF7B7" stroke-width="10"/>
    <circle cx="415" cy="277" r="84" fill="url(#gold)" stroke="#FFF7B7" stroke-width="9"/>
    <circle cx="308" cy="355" r="72" fill="url(#gold)" stroke="#FFF7B7" stroke-width="8"/>
  </g>
  <g fill="#825116">
    <path d="M174 259 197 335l25-51 23 51 43-79h-29l-17 35-19-47-23 48-12-33z"/>
    <path d="M254 172 282 272l31-65 30 65 54-100h-37l-21 44-25-60-29 61-16-45z"/>
    <path d="M360 236 386 325l28-58 27 58 49-90h-34l-19 40-23-54-26 55-14-40z"/>
    <path d="M264 323 286 395l24-48 22 48 40-74h-27l-15 33-20-44-21 45-12-32z"/>
  </g>
  <path d="M152 414h337" stroke="#FFFFFF" stroke-opacity="0.14" stroke-width="7"/>
</svg>