<svg xmlns="http://www.w3.org/2000/svg" viewBox="0 0 512 512">
  <defs><linearGradient id="g" x1="0" y1="0" x2="1" y2="1"><stop offset="0" stop-color="#A958E7"/><stop offset="1" stop-color="#5131A9"/></linearGradient></defs>
  <path d="M256 35 420 91v132c0 112-65 198-164 252C157 421 92 335 92 223V91L256 35z" fill="url(#g)" stroke="#E0B7FF" stroke-width="12"/>
  <circle cx="256" cy="251" r="105" fill="none" stroke="#FFFFFF" stroke-width="20"/>
  <path d="M151 251h210M256 146c37 34 57 69 57 105s-20 72-57 105c-37-33-57-69-57-105s20-71 57-105z" fill="none" stroke="#FFFFFF" stroke-width="16"/>
  <path d="M172 198c48 23 119 23 168 0M172 304c48-23 119-23 168 0" fill="none" stroke="#FFFFFF" stroke-opacity="0.65" stroke-width="12"/>
</svg>