<svg xmlns="http://www.w3.org/2000/svg" viewBox="0 0 900 900">
  <defs>
    <radialGradient id="g" cx="0.5" cy="0.5" r="0.5">
      <stop offset="0" stop-color="#B8FFD7" stop-opacity="0.85"/>
      <stop offset="0.35" stop-color="#45E99B" stop-opacity="0.48"/>
      <stop offset="1" stop-color="#45E99B" stop-opacity="0"/>
    </radialGradient>
    <linearGradient id="ray" x1="0" y1="0" x2="1" y2="0">
      <stop offset="0" stop-color="#FFFFFF" stop-opacity="0"/>
      <stop offset="1" stop-color="#FFFFFF" stop-opacity="0.5"/>
    </linearGradient>
  </defs>
  <circle cx="450" cy="450" r="420" fill="url(#g)"/>
  <g fill="#FFFFFF" fill-opacity="0.16" transform="translate(450 450)">
    <path d="M0-420 28-96 -28-96z"/>
    <path d="M0-420 28-96 -28-96z" transform="rotate(30)"/>
    <path d="M0-420 28-96 -28-96z" transform="rotate(60)"/>
    <path d="M0-420 28-96 -28-96z" transform="rotate(90)"/>
    <path d="M0-420 28-96 -28-96z" transform="rotate(120)"/>
    <path d="M0-420 28-96 -28-96z" transform="rotate(150)"/>
    <path d="M0-420 28-96 -28-96z" transform="rotate(180)"/>
    <path d="M0-420 28-96 -28-96z" transform="rotate(210)"/>
    <path d="M0-420 28-96 -28-96z" transform="rotate(240)"/>
    <path d="M0-420 28-96 -28-96z" transform="rotate(270)"/>
    <path d="M0-420 28-96 -28-96z" transform="rotate(300)"/>
    <path d="M0-420 28-96 -28-96z" transform="rotate(330)"/>
  </g>
  <g fill="#FFE25B">
    <circle cx="171" cy="188" r="10"/><circle cx="728" cy="204" r="7"/><circle cx="761" cy="630" r="9"/><circle cx="195" cy="676" r="7"/>
  </g>
  <g fill="#6AD6FF">
    <circle cx="263" cy="121" r="7"/><circle cx="805" cy="405" r="8"/><circle cx="527" cy="806" r="7"/><circle cx="94" cy="459" r="8"/>
  </g>
</svg>